<svg width="672.000000pt" height="195.000000pt" viewBox="0 0 672.000000 195.000000" xmlns="http://www.w3.org/2000/svg">
  <g transform="translate(0.000000,195.000000) scale(0.100000,-0.100000)" fill="#000000" stroke="none">
    <path d="M0 975 l0 -975 1498 0 1498 0 12 12 c7 7 12 21 12 31 0 11 11 28 25
39 14 11 25 24 25 29 0 12 18 29 45 45 10 6 23 19 29 29 6 11 18 26 27 35 22
20 129 156 129 162 0 3 18 25 40 49 22 24 40 49 40 56 0 7 9 17 20 23 11 6 20
16 20 23 0 7 9 18 20 25 11 7 20 17 20 24 0 6 7 18 15 27 48 49 95 108 95 118
0 7 9 17 20 23 11 6 20 17 20 25 0 8 9 19 20 25 11 6 20 17 20 24 0 8 7 16 15
20 8 3 15 10 15 15 0 6 11 21 25 35 l25 25 0 43 0 44 -96 119 c-53 66 -104
127 -115 137 -10 9 -19 21 -19 27 0 6 -9 15 -20 21 -11 6 -20 16 -20 22 0 14
-260 338 -271 338 -5 0 -9 7 -9 15 0 9 -7 18 -16 22 -8 3 -20 17 -25 30 -5 14
-18 27 -29 30 -11 3 -20 9 -20 15 0 5 -18 28 -40 50 -22 23 -40 48 -40 55 0 8
-7 25 -16 38 l-16 25 -1489 0 -1489 0 0 -975z m1159 445 l73 -10 72 -35 c39
-19 85 -46 101 -60 l30 -25 -82 -82 -82 -82 -18 17 c-10 9 -35 23 -56 32 l-36
15 -61 0 -61 0 -37 -16 c-49 -20 -90 -60 -113 -109 l-19 -40 0 -68 0 -68 16
-37 c20 -49 60 -90 109 -113 l40 -19 63 0 63 0 37 16 c42 17 92 61 92 81 l0
13 -110 0 -110 0 0 104 0 104 173 4 c94 1 188 2 207 0 l35 -4 -3 -186 -3 -187
-47 -42 c-26 -24 -81 -59 -122 -80 l-75 -37 -126 -4 -127 -4 -38 17 c-22 10
-58 26 -80 37 -23 10 -67 42 -98 71 l-56 52 -33 60 c-18 33 -39 88 -47 123
l-13 62 5 84 6 84 32 60 c18 34 56 88 85 120 l54 59 74 37 c62 32 155 61 202
65 6 0 43 -4 84 -9z m1020 0 l73 -10 74 -35 74 -36 68 -67 69 -67 22 -54 c48
-113 58 -244 25 -318 -8 -17 -14 -38 -14 -46 0 -9 -4 -19 -10 -22 -5 -3 -10
-13 -10 -21 0 -17 -30 -54 -94 -116 l-49 -47 -76 -38 -76 -37 -126 -4 -127 -4
-38 17 c-22 10 -58 27 -82 37 -39 18 -134 103 -172 153 -36 47 -57 94 -70 153
l-13 62 5 83 6 83 22 44 c23 45 29 52 114 146 l46 51 74 38 c61 31 154 60 201
64 6 0 43 -4 84 -9z" />
    <path d="M2015 1171 c-49 -23 -89 -64 -109 -113 l-16 -37 0 -68 0 -68 19 -40
c23 -49 64 -89 113 -109 l37 -16 61 0 61 0 37 16 c49 20 90 60 113 109 l19 40
0 70 0 70 -19 40 c-23 49 -64 89 -113 109 l-37 16 -63 0 -63 0 -40 -19z" />
    <path d="M6715 975 c0 -539 1 -758 2 -487 2 272 2 713 0 980 -1 268 -2 46 -2
-493z" />
  </g>
  <g transform="translate(0.000000,195.000000) scale(0.100000,-0.100000)" fill="#ff6b0a" stroke="none">
    <path d="M3730 975 l0 -975 1495 0 1495 0 0 975 0 975 -1495 0 -1495 0 0 -975z
m1190 15 l0 -440 -105 0 -105 0 0 440 0 440 105 0 105 0 0 -440z m1020 330 l0
-110 -130 0 -130 0 0 -330 0 -330 -120 0 -120 0 0 330 0 330 -120 0 -120 0 0
110 0 110 370 0 370 0 0 -110z" />
  </g>
  <g transform="translate(0.000000,195.000000) scale(0.100000,-0.100000)" fill="#ffffff" stroke="none">
    <path d="M2963 1939 c9 -6 15 -15 11 -20 -3 -6 16 -36 43 -67 27 -31 56 -67
64 -79 9 -13 18 -21 21 -18 3 3 11 -2 19 -12 l14 -17 -14 9 c-7 4 -3 -6 10
-24 22 -30 38 -43 23 -19 l-7 11 11 -7 c7 -4 12 -11 12 -16 0 -4 13 -22 30
-40 16 -18 27 -37 23 -43 l-6 -10 10 6 11 7 28 -38 c16 -20 27 -43 26 -51 -2
-7 1 -10 6 -7 12 7 46 -30 38 -43 -4 -5 -1 -13 5 -17 l12 -7 -8 14 c-5 8 1 5
13 -5 24 -21 29 -30 10 -21 -7 4 -5 0 4 -8 10 -8 14 -18 10 -22 -4 -5 -2 -5 5
-1 12 6 27 -10 28 -29 0 -6 15 -28 34 -50 18 -22 30 -34 26 -26 l-8 14 11 -7
c7 -4 12 -16 12 -26 0 -10 5 -22 12 -26 l11 -7 -7 14 c-4 8 4 1 18 -15 14 -17
22 -34 19 -39 l-6 -10 10 6 c6 4 17 -1 24 -10 l14 -17 -12 8 -13 7 6 -15 c3
-9 10 -14 14 -11 11 6 43 -32 36 -43 -3 -5 4 -18 17 -28 l22 -19 -20 25 -19
25 23 -21 c12 -11 24 -29 25 -40 2 -10 9 -19 16 -19 7 0 20 -15 29 -32 9 -18
19 -33 24 -33 4 0 7 221 7 490 l0 490 -397 0 -398 -1 18 -10z m32 -39 c3 -5 4
-10 1 -10 -3 0 -8 5 -11 10 -3 6 -4 10 -1 10 3 0 8 -4 11 -10z m446 -557 l14
-18 -17 14 c-17 13 -22 21 -14 21 2 0 10 -8 17 -17z" />
    <path d="M3315 1480 c3 -5 8 -10 11 -10 3 0 2 5 -1 10 -3 6 -8 10 -11 10 -3 0
-2 -4 1 -10z" />
    <path d="M970 1423 c-14 -7 -32 -10 -40 -7 -8 3 -11 2 -8 -2 9 -8 -103 -64
-115 -57 l-10 6 6 -10 c6 -10 -19 -28 -35 -25 -3 1 -12 -6 -20 -16 l-13 -17
20 15 20 15 -19 -22 c-10 -12 -23 -21 -28 -20 -6 1 -12 -7 -14 -18 -1 -11 -12
-28 -24 -37 -11 -9 -21 -21 -21 -25 -1 -4 -5 -7 -11 -5 -5 1 -7 -2 -4 -7 7
-11 -4 -42 -13 -37 -4 3 -7 -3 -8 -12 -4 -38 -16 -82 -22 -82 -8 0 5 -205 16
-245 4 -16 23 -59 42 -93 l35 -64 55 -49 c30 -27 74 -58 96 -68 22 -10 57 -26
78 -35 l37 -17 133 2 132 1 28 14 c15 8 33 12 40 8 7 -4 9 -4 5 1 -9 10 62 46
75 38 l10 -6 -7 11 c-4 7 -4 12 1 12 4 0 29 19 55 43 l46 42 4 201 3 200 -60
-1 c-33 -1 -131 -2 -217 -3 l-158 -2 0 -115 0 -115 112 0 111 0 -24 -26 c-13
-15 -42 -35 -64 -45 l-40 -19 -55 0 -55 0 -40 19 c-49 23 -89 64 -109 113
l-16 37 0 58 0 58 19 40 c36 79 111 125 201 125 57 0 113 -20 148 -52 l23 -22
93 93 94 93 -17 17 c-9 10 -18 16 -20 14 -8 -6 -31 19 -25 28 3 5 -1 6 -9 3
-8 -3 -18 0 -23 7 l-7 12 13 -8 13 -8 -7 11 -7 11 -16 -6 -16 -6 7 11 7 12
-15 -6 -16 -6 0 11 c0 6 -3 10 -7 10 -5 -1 -16 -1 -26 0 l-18 1 7 12 7 11 -10
-6 c-6 -4 -25 -2 -44 4 -19 5 -79 11 -134 12 l-100 3 -25 -13z" />
    <path d="M1990 1423 c-14 -7 -32 -10 -40 -7 -8 3 -11 2 -8 -2 9 -8 -103 -64
-115 -57 l-10 6 6 -10 c6 -10 -19 -28 -35 -25 -3 1 -12 -6 -20 -16 l-13 -17
20 15 20 15 -19 -22 c-10 -12 -23 -21 -28 -20 -6 1 -12 -7 -14 -18 -1 -11 -12
-27 -23 -36 -11 -9 -17 -19 -14 -23 6 -6 -12 -10 -30 -7 -5 1 -6 -3 -3 -8 7
-11 -4 -42 -13 -37 -4 3 -7 -3 -8 -12 -4 -38 -16 -82 -22 -82 -7 0 4 -204 14
-240 8 -29 42 -95 64 -124 40 -52 134 -136 173 -154 24 -10 60 -27 81 -36 l37
-17 133 2 132 1 28 14 c15 8 33 12 40 8 7 -4 9 -4 5 1 -9 10 62 46 75 38 l10
-6 -7 11 c-4 7 -3 12 1 12 10 0 97 82 131 123 12 15 22 33 22 41 0 7 7 19 15
26 9 7 14 19 11 27 l-6 14 12 -7 11 -7 -6 18 -7 18 10 12 11 13 -1 99 c-1 138
-1 143 -12 143 l-9 0 6 21 7 22 -13 -8 -12 -8 6 16 c3 10 2 17 -2 17 -5 0 -17
20 -26 45 -10 24 -20 43 -24 42 -12 -3 -71 70 -63 78 4 5 1 5 -5 1 l-13 -7 0
12 c0 7 -3 9 -7 6 -9 -9 -34 13 -27 24 3 5 -1 6 -9 3 -8 -3 -18 0 -23 7 l-7
12 13 -8 13 -8 -7 11 -7 11 -16 -6 -16 -6 7 11 7 12 -15 -6 -16 -6 0 11 c0 6
-3 10 -7 10 -5 -1 -16 -1 -26 0 l-18 1 7 12 7 11 -10 -6 c-6 -4 -25 -2 -44 4
-19 6 -79 11 -134 13 l-100 2 -25 -13z m218 -259 c49 -20 90 -60 113 -109 l19
-40 0 -60 0 -60 -19 -40 c-36 -79 -111 -125 -201 -125 -90 0 -165 46 -201 125
l-19 40 0 58 0 58 16 37 c20 49 60 90 109 113 l40 19 53 0 c29 0 69 -7 90 -16z" />
    <path d="M4700 990 l0 -450 115 0 115 0 0 450 0 450 -115 0 -115 0 0 -450z" />
    <path d="M5190 1320 l0 -120 120 0 120 0 0 -330 0 -330 130 0 130 0 0 330 0
330 130 0 130 0 0 120 0 120 -380 0 -380 0 0 -120z" />
    <path d="M684 1238 l-7 -11 11 7 c7 4 12 9 12 12 0 8 -9 4 -16 -8z" />
    <path d="M1704 1238 l-7 -11 11 7 c12 7 16 16 8 16 -3 0 -8 -5 -12 -12z" />
    <path d="M3595 1130 c3 -5 8 -10 11 -10 3 0 2 5 -1 10 -3 6 -8 10 -11 10 -3 0
-2 -4 1 -10z" />
    <path d="M3710 927 c-8 -17 -22 -32 -30 -32 -8 0 -15 -8 -15 -17 0 -9 -4 -20
-9 -25 l-9 -8 8 15 8 15 -12 -11 c-7 -6 -14 -20 -16 -30 -1 -11 -7 -18 -11
-17 -12 2 -29 -19 -29 -34 0 -7 -4 -14 -10 -15 -16 -3 -33 -22 -29 -33 2 -5
-11 -26 -28 -45 -17 -19 -27 -29 -23 -21 l8 14 -11 -7 c-7 -4 -12 -14 -12 -22
0 -8 -3 -13 -7 -11 -5 3 -18 -11 -30 -30 -13 -19 -17 -31 -10 -27 l12 7 -13
-14 c-7 -8 -18 -14 -25 -14 -7 0 -11 -8 -9 -16 l2 -17 -25 -16 c-14 -9 -23
-21 -21 -25 3 -5 -4 -17 -17 -27 l-22 -19 10 15 c6 9 -2 2 -17 -15 -15 -16
-28 -36 -28 -43 0 -7 -12 -29 -26 -48 l-26 -34 -11 7 -10 6 7 -11 6 -11 -26
-28 c-14 -15 -22 -22 -18 -14 l7 14 -12 -7 c-7 -5 -10 -14 -7 -21 5 -13 -16
-39 -25 -31 -2 2 -13 -8 -24 -22 l-19 -27 19 15 20 15 -19 -23 c-11 -12 -21
-20 -24 -18 -6 6 -116 -134 -118 -151 l-2 -13 379 0 379 0 0 480 c0 264 -3
480 -7 480 -5 0 -15 -15 -23 -33z m-380 -491 c0 -2 -8 -10 -17 -17 l-18 -14
14 18 c13 16 21 21 21 13z m-320 -400 c0 -3 -5 -8 -12 -12 l-11 -7 7 11 c7 12
16 16 16 8z" />
  </g>
  <g transform="translate(0.000000,195.000000) scale(0.100000,-0.100000)" fill="#080808" stroke="none">
    <path d="M2218 1943 c6 -2 18 -2 25 0 6 3 1 5 -13 5 -14 0 -19 -2 -12 -5z" />
    <path d="M2493 1943 c15 -2 39 -2 55 0 15 2 2 4 -28 4 -30 0 -43 -2 -27 -4z" />
    <path d="M2808 1943 c6 -2 18 -2 25 0 6 3 1 5 -13 5 -14 0 -19 -2 -12 -5z" />
    <path d="M2883 1936 l0 -15 21 11 c31 16 32 18 4 18 l-25 0 0 -14z" />
    <path d="M2268 1923 c12 -2 32 -2 45 0 12 2 2 4 -23 4 -25 0 -35 -2 -22 -4z" />
    <path d="M2448 1923 c23 -2 61 -2 85 0 23 2 4 4 -43 4 -47 0 -66 -2 -42 -4z" />
    <path d="M2713 1923 c4 -3 10 -3 14 0 3 4 0 7 -7 7 -7 0 -10 -3 -7 -7z" />
    <path d="M2970 1907 c0 -8 7 -18 16 -21 l16 -6 -6 -15 -5 -15 11 3 c6 1 13 -4
16 -12 l5 -14 -12 7 c-6 4 -11 3 -11 -3 0 -5 5 -13 10 -16 6 -3 10 -1 10 5 l0
12 15 -6 c25 -9 17 8 -25 53 l-40 43 0 -15z" />
    <path d="M2348 1903 c12 -2 32 -2 45 0 12 2 2 4 -23 4 -25 0 -35 -2 -22 -4z" />
    <path d="M2974 1808 l-7 -11 11 7 c7 4 12 9 12 12 0 8 -9 4 -16 -8z" />
    <path d="M3063 1798 c0 -7 9 -22 19 -32 l18 -19 0 15 c0 8 -8 22 -18 31 l-19
17 0 -12z" />
    <path d="M3050 1743 c0 -19 21 -27 33 -13 l12 13 -14 -8 -13 -8 -9 14 -9 14 0
-12z" />
    <path d="M3122 1723 l16 -18 -2 -31 -3 -30 21 -2 21 -1 -14 8 c-7 5 -11 13 -7
19 9 14 -13 60 -32 67 l-16 6 16 -18z m25 -50 c-4 -3 -7 0 -7 7 0 7 3 10 7 7
3 -4 3 -10 0 -14z" />
    <path d="M3170 1670 c0 -7 3 -10 7 -7 3 4 3 10 0 14 -4 3 -7 0 -7 -7z" />
    <path d="M3216 1568 c3 -5 10 -6 15 -3 13 9 11 12 -6 12 -8 0 -12 -4 -9 -9z" />
    <path d="M3250 1540 c0 -5 5 -10 11 -10 5 0 7 5 4 10 -3 6 -8 10 -11 10 -2 0
-4 -4 -4 -10z" />
    <path d="M3291 1510 c0 -9 8 -23 19 -33 21 -18 28 -43 9 -31 l-11 6 13 -23 12
-24 7 20 7 20 -15 23 c-8 12 -18 22 -22 22 -5 0 -11 8 -13 18 l-5 17 -1 -15z" />
    <path d="M3215 1490 c3 -5 8 -10 11 -10 2 0 4 5 4 10 0 6 -5 10 -11 10 -5 0
-7 -4 -4 -10z" />
    <path d="M1233 1473 c4 -3 10 -3 14 0 3 4 0 7 -7 7 -7 0 -10 -3 -7 -7z" />
    <path d="M983 1463 c4 -3 10 -3 14 0 3 4 0 7 -7 7 -7 0 -10 -3 -7 -7z" />
    <path d="M2003 1463 c4 -3 10 -3 14 0 3 4 0 7 -7 7 -7 0 -10 -3 -7 -7z" />
    <path d="M2203 1463 c4 -3 10 -3 14 0 3 4 0 7 -7 7 -7 0 -10 -3 -7 -7z" />
    <path d="M2288 1463 c7 -3 16 -2 19 1 4 3 -2 6 -13 5 l-19 -1 13 -5z" />
    <path d="M933 1453 c4 -3 10 -3 14 0 3 4 0 7 -7 7 -7 0 -10 -3 -7 -7z" />
    <path d="M1953 1453 c4 -3 10 -3 14 0 3 4 0 7 -7 7 -7 0 -10 -3 -7 -7z" />
    <path d="M2150 1451 c0 -5 7 -11 14 -14 l15 -6 -6 15 c-6 15 -23 19 -23 5z" />
    <path d="M2243 1453 c4 -3 10 -3 14 0 3 4 0 7 -7 7 -7 0 -10 -3 -7 -7z" />
    <path d="M912 1434 l2 -22 22 2 c12 0 20 5 16 10 l-5 9 21 -5 22 -6 7 10 6 11
-11 -7 c-6 -3 -13 -2 -17 4 l-6 10 -20 -13 -20 -12 -9 15 -9 15 1 -21z" />
    <path d="M1030 1440 c25 -8 97 -13 89 -6 -2 2 -29 6 -59 9 l-55 6 25 -9z" />
    <path d="M1258 1443 c7 -3 16 -2 19 1 4 3 -2 6 -13 5 l-19 -1 13 -5z" />
    <path d="M1932 1434 l2 -22 22 2 c12 0 20 5 16 10 l-5 9 21 -5 22 -6 7 10 6
11 -11 -7 c-6 -3 -13 -2 -17 4 l-6 10 -20 -13 -20 -12 -9 15 -9 15 1 -21z" />
    <path d="M2050 1440 c25 -8 97 -13 89 -6 -2 2 -29 6 -59 9 l-55 6 25 -9z" />
    <path d="M2208 1443 c7 -3 16 -2 19 1 4 3 -2 6 -13 5 l-19 -1 13 -5z" />
    <path d="M1206 1431 l-6 -9 20 5 c23 6 26 13 6 13 -8 0 -17 -4 -20 -9z" />
    <path d="M2253 1433 c4 -3 10 -3 14 0 3 4 0 7 -7 7 -7 0 -10 -3 -7 -7z" />
    <path d="M3296 1427 c3 -10 9 -15 12 -12 3 3 0 11 -7 18 l-12 12 7 -18z" />
    <path d="M3365 1420 c3 -5 8 -10 11 -10 3 0 2 5 -1 10 -3 6 -8 10 -11 10 -3 0
-2 -4 1 -10z" />
    <path d="M846 1391 l-20 -8 20 -5 21 -5 0 13 c0 8 -1 14 -1 13 -1 0 -10 -4
-20 -8z" />
    <path d="M1342 1385 c-3 -5 -2 -7 3 -3 4 4 13 1 19 -7 l11 -16 16 19 16 19
-29 -1 c-17 -1 -32 -5 -36 -11z" />
    <path d="M1427 1393 c-13 -12 -7 -31 11 -38 l17 -6 -12 12 c-6 6 -9 18 -6 25
5 15 1 18 -10 7z" />
    <path d="M1866 1391 l-20 -8 20 -5 21 -5 0 13 c0 8 -1 14 -1 13 -1 0 -10 -4
-20 -8z" />
    <path d="M2362 1385 c-3 -5 -2 -7 3 -3 4 4 13 1 19 -7 l11 -16 16 19 16 19
-29 -1 c-17 -1 -32 -5 -36 -11z" />
    <path d="M2447 1393 c-13 -12 -7 -31 11 -38 l17 -6 -12 12 c-6 6 -9 18 -6 25
5 15 1 18 -10 7z" />
    <path d="M3376 1385 c4 -8 8 -15 10 -15 2 0 4 7 4 15 0 8 -4 15 -10 15 -5 0
-7 -7 -4 -15z" />
    <path d="M778 1383 c-14 -3 -34 -33 -26 -37 2 -1 14 8 27 21 13 13 22 22 20
22 -2 -1 -11 -3 -21 -6z" />
    <path d="M1798 1383 c-14 -3 -34 -33 -26 -37 2 -1 14 8 27 21 13 13 22 22 20
22 -2 -1 -11 -3 -21 -6z" />
    <path d="M2470 1380 c0 -7 3 -10 7 -7 3 4 3 10 0 14 -4 3 -7 0 -7 -7z" />
    <path d="M784 1355 l-19 -14 13 -1 13 0 -7 -12 -7 -11 12 7 c7 5 10 10 7 14
-3 3 2 11 12 18 9 7 12 14 6 14 -5 0 -19 -7 -30 -15z" />
    <path d="M1804 1355 l-19 -14 13 -1 13 0 -7 -12 -7 -11 12 7 c7 5 10 10 7 14
-3 3 2 11 12 18 9 7 12 14 6 14 -5 0 -19 -7 -30 -15z" />
    <path d="M3394 1359 c-3 -6 1 -17 10 -25 9 -8 11 -9 6 -2 -6 7 -10 16 -10 22
0 5 13 -3 29 -18 l29 -28 -2 -32 -3 -33 12 0 12 0 -2 28 c-2 25 -50 97 -67 98
-4 1 -10 -4 -14 -10z m73 -86 c-4 -3 -7 0 -7 7 0 7 3 10 7 7 3 -4 3 -10 0 -14z" />
    <path d="M1408 1342 c9 -11 21 -17 25 -14 5 2 0 10 -10 18 -26 20 -36 17 -15
-4z" />
    <path d="M2428 1342 c9 -11 21 -17 25 -14 5 2 0 10 -10 18 -26 20 -36 17 -15
-4z" />
    <path d="M3370 1341 c0 -6 4 -13 10 -16 l10 -6 -6 15 c-7 18 -14 21 -14 7z" />
    <path d="M730 1300 c-17 -16 -29 -34 -25 -40 3 -5 8 -10 11 -10 3 0 3 4 0 9
-3 5 8 23 26 40 41 40 31 41 -12 1z" />
    <path d="M1750 1300 c-17 -16 -29 -34 -25 -40 3 -5 8 -10 11 -10 3 0 3 4 0 9
-3 5 8 23 26 40 41 40 31 41 -12 1z" />
    <path d="M1443 1313 c4 -3 10 -3 14 0 3 4 0 7 -7 7 -7 0 -10 -3 -7 -7z" />
    <path d="M1497 1296 c-3 -8 0 -17 7 -19 l14 -6 -5 20 c-6 23 -9 24 -16 5z" />
    <path d="M690 1290 c0 -7 3 -10 7 -7 3 4 3 10 0 14 -4 3 -7 0 -7 -7z" />
    <path d="M1710 1290 c0 -7 3 -10 7 -7 3 4 3 10 0 14 -4 3 -7 0 -7 -7z" />
    <path d="M1467 1271 l-6 -24 11 11 c5 5 8 16 6 23 l-4 13 -7 -23z" />
    <path d="M2505 1280 c3 -5 8 -10 11 -10 2 0 4 5 4 10 0 6 -5 10 -11 10 -5 0
-7 -4 -4 -10z" />
    <path d="M2540 1260 c0 -7 3 -10 7 -7 3 4 3 10 0 14 -4 3 -7 0 -7 -7z" />
    <path d="M3490 1261 c0 -6 4 -13 10 -16 l10 -6 -6 15 c-7 18 -14 21 -14 7z" />
    <path d="M680 1239 c0 -5 5 -7 10 -4 6 3 10 8 10 11 0 2 -4 4 -10 4 -5 0 -10
-5 -10 -11z" />
    <path d="M1700 1239 c0 -5 5 -7 10 -4 6 3 10 8 10 11 0 2 -4 4 -10 4 -5 0 -10
-5 -10 -11z" />
    <path d="M598 1214 c6 -33 17 -38 17 -8 0 13 -5 26 -11 28 l-11 4 5 -24z" />
    <path d="M1608 1214 c6 -33 17 -38 17 -8 0 13 -5 26 -11 28 l-11 4 5 -24z" />
    <path d="M2530 1235 c0 -5 5 -17 10 -25 5 -8 10 -10 10 -5 0 6 -5 17 -10 25
-5 8 -10 11 -10 5z" />
    <path d="M665 1220 c3 -5 8 -10 11 -10 3 0 2 5 -1 10 -3 6 -8 10 -11 10 -3 0
-2 -4 1 -10z" />
    <path d="M1677 1219 c7 -7 15 -10 18 -7 3 3 -2 9 -12 12 l-18 7 12 -12z" />
    <path d="M630 1170 c-12 -17 -20 -35 -18 -41 2 -6 13 8 25 30 12 23 20 41 18
41 -2 0 -13 -14 -25 -30z" />
    <path d="M1640 1170 c-12 -17 -20 -35 -18 -41 2 -6 13 8 25 30 12 23 20 41 18
41 -2 0 -13 -14 -25 -30z" />
    <path d="M3536 1168 c3 -4 10 -5 17 -2 l12 4 10 -22 c6 -12 17 -23 25 -25 l15
-4 -16 13 c-8 7 -18 21 -22 30 l-6 17 -20 -2 c-11 0 -18 -5 -15 -9z" />
    <path d="M2610 1150 c0 -7 3 -10 7 -7 3 4 3 10 0 14 -4 3 -7 0 -7 -7z" />
    <path d="M2587 1129 l7 -23 4 13 c2 7 -1 18 -6 23 l-11 11 6 -24z" />
    <path d="M3530 1122 c0 -11 27 -42 37 -42 3 0 -2 10 -13 23 -10 12 -20 24 -21
26 -2 2 -3 -1 -3 -7z" />
    <path d="M572 1090 c0 -14 2 -19 5 -12 2 6 2 18 0 25 -3 6 -5 1 -5 -13z" />
    <path d="M600 1080 c0 -16 4 -30 8 -30 5 0 7 14 4 30 -2 17 -6 30 -8 30 -2 0
-4 -13 -4 -30z" />
    <path d="M1610 1080 c0 -16 4 -30 8 -30 5 0 7 14 4 30 -2 17 -6 30 -8 30 -2 0
-4 -13 -4 -30z" />
    <path d="M2621 1097 l-1 -18 -10 6 c-5 3 -10 1 -10 -5 l0 -12 15 6 15 5 0 -11
c0 -6 2 -9 5 -6 3 3 1 16 -4 29 l-10 24 0 -18z" />
    <path d="M3610 1103 c0 -7 6 -16 13 -20 7 -4 20 -20 29 -35 l17 -27 -12 -4
-12 -5 18 -1 17 -1 0 14 c0 8 -5 18 -10 21 -6 4 -7 12 -4 18 4 7 4 9 0 5 -5
-4 -19 5 -32 20 -13 15 -24 22 -24 15z" />
    <path d="M1481 1063 c0 -4 4 -17 9 -28 l9 -20 0 22 c1 12 -3 25 -9 28 -5 3
-10 3 -9 -2z" />
    <path d="M1413 1053 c4 -3 10 -3 14 0 3 4 0 7 -7 7 -7 0 -10 -3 -7 -7z" />
    <path d="M1443 1053 c4 -3 10 -3 14 0 3 4 0 7 -7 7 -7 0 -10 -3 -7 -7z" />
    <path d="M582 1030 c0 -14 2 -19 5 -12 2 6 2 18 0 25 -3 6 -5 1 -5 -13z" />
    <path d="M2621 1034 l1 -19 5 13 c3 7 2 16 -1 19 -3 4 -6 -2 -5 -13z" />
    <path d="M2640 1030 c0 -7 3 -10 7 -7 3 4 3 10 0 14 -4 3 -7 0 -7 -7z" />
    <path d="M3620 1020 c-6 -11 -8 -20 -6 -20 3 0 10 9 16 20 6 11 8 20 6 20 -3
0 -10 -9 -16 -20z" />
    <path d="M2631 994 l1 -19 5 13 c3 7 2 16 -1 19 -3 4 -6 -2 -5 -13z" />
    <path d="M2612 965 l0 -30 5 18 c2 9 2 23 0 30 -3 6 -5 -1 -5 -18z" />
    <path d="M3714 969 c-3 -6 -1 -16 5 -22 l11 -11 0 22 c0 24 -5 28 -16 11z" />
    <path d="M2630 930 c0 -7 3 -10 7 -7 3 4 3 10 0 14 -4 3 -7 0 -7 -7z" />
    <path d="M3615 910 c3 -5 8 -10 11 -10 3 0 2 5 -1 10 -3 6 -8 10 -11 10 -3 0
-2 -4 1 -10z" />
    <path d="M3683 913 c4 -3 10 -3 14 0 3 4 0 7 -7 7 -7 0 -10 -3 -7 -7z" />
    <path d="M3654 873 c-10 -15 -23 -31 -29 -35 l-10 -8 11 0 c12 0 58 59 51 67
-3 2 -14 -8 -23 -24z" />
    <path d="M2620 870 c0 -7 3 -10 7 -7 3 4 3 10 0 14 -4 3 -7 0 -7 -7z" />
    <path d="M3620 869 c0 -5 5 -7 10 -4 6 3 10 8 10 11 0 2 -4 4 -10 4 -5 0 -10
-5 -10 -11z" />
    <path d="M2600 850 c0 -7 3 -10 7 -7 3 4 3 10 0 14 -4 3 -7 0 -7 -7z" />
    <path d="M3545 830 c-22 -9 -21 -10 12 -14 l21 -3 -5 14 c-3 7 -6 13 -7 12 0
0 -10 -4 -21 -9z" />
    <path d="M610 810 c0 -7 3 -10 7 -7 3 4 3 10 0 14 -4 3 -7 0 -7 -7z" />
    <path d="M1565 788 l-16 -33 20 25 c20 24 26 40 16 40 -2 0 -12 -15 -20 -32z" />
    <path d="M1620 810 c0 -7 3 -10 7 -7 3 4 3 10 0 14 -4 3 -7 0 -7 -7z" />
    <path d="M2585 788 l-16 -33 20 25 c20 24 26 40 16 40 -2 0 -12 -15 -20 -32z" />
    <path d="M3593 796 c-13 -12 -23 -28 -23 -35 l0 -13 -15 5 c-8 4 -16 3 -19 -1
-3 -4 4 -9 15 -9 l20 -2 6 17 c3 9 15 25 27 34 11 9 19 19 16 21 -3 2 -15 -5
-27 -17z" />
    <path d="M626 783 c-4 -9 -3 -20 1 -24 4 -4 9 3 9 17 2 28 -1 31 -10 7z" />
    <path d="M1636 783 c-4 -9 -3 -20 1 -24 4 -4 9 3 9 17 2 28 -1 31 -10 7z" />
    <path d="M3553 793 c4 -3 10 -3 14 0 3 4 0 7 -7 7 -7 0 -10 -3 -7 -7z" />
    <path d="M601 774 l1 -19 5 13 c3 7 2 16 -1 19 -3 4 -6 -2 -5 -13z" />
    <path d="M1600 770 c0 -7 3 -10 7 -7 3 4 3 10 0 14 -4 3 -7 0 -7 -7z" />
    <path d="M2620 770 c0 -7 3 -10 7 -7 3 4 3 10 0 14 -4 3 -7 0 -7 -7z" />
    <path d="M590 740 c0 -7 3 -10 7 -7 3 4 3 10 0 14 -4 3 -7 0 -7 -7z" />
    <path d="M641 724 l1 -19 5 13 c3 7 2 16 -1 19 -3 4 -6 -2 -5 -13z" />
    <path d="M1651 724 l1 -19 5 13 c3 7 2 16 -1 19 -3 4 -6 -2 -5 -13z" />
    <path d="M1526 721 l-7 -11 10 0 c6 0 11 -5 11 -11 l0 -11 -17 7 -18 6 13 -12
12 -13 11 11 11 11 -10 17 -9 18 -7 -12z" />
    <path d="M2546 721 l-7 -11 10 0 c6 0 11 -5 11 -11 l0 -11 -17 7 -18 6 13 -12
12 -13 11 11 11 11 -10 17 -9 18 -7 -12z" />
    <path d="M664 708 l-7 -11 11 7 c12 7 16 16 8 16 -3 0 -8 -5 -12 -12z" />
    <path d="M1674 708 l-7 -11 11 7 c12 7 16 16 8 16 -3 0 -8 -5 -12 -12z" />
    <path d="M674 688 l-7 -11 11 7 c7 4 12 9 12 12 0 8 -9 4 -16 -8z" />
    <path d="M1690 690 l-15 -10 12 0 c6 0 15 5 18 10 8 12 4 12 -15 0z" />
    <path d="M603 683 c4 -3 10 -3 14 0 3 4 0 7 -7 7 -7 0 -10 -3 -7 -7z" />
    <path d="M3456 644 l2 -33 -13 -11 c-8 -7 -18 -9 -23 -6 -13 8 -35 -20 -27
-34 8 -13 25 -13 25 1 l0 10 -11 -7 -12 -7 5 14 c3 8 12 13 20 11 21 -3 51 34
53 66 l2 29 -12 0 -12 0 3 -33z m11 -11 c-4 -3 -7 0 -7 7 0 7 3 10 7 7 3 -4 3
-10 0 -14z" />
    <path d="M3495 669 c-4 -6 -5 -12 -2 -15 2 -3 7 2 10 11 7 17 1 20 -8 4z" />
    <path d="M1510 660 c0 -7 3 -10 7 -7 3 4 3 10 0 14 -4 3 -7 0 -7 -7z" />
    <path d="M2530 660 c0 -7 3 -10 7 -7 3 4 3 10 0 14 -4 3 -7 0 -7 -7z" />
    <path d="M679 658 c-1 -2 -2 -16 -3 -31 l-2 -29 13 17 12 17 16 -16 c23 -23
32 -20 11 3 l-18 20 8 13 c4 7 -3 4 -16 -7 l-23 -20 6 18 c4 9 4 17 2 17 -3 0
-6 -1 -6 -2z" />
    <path d="M1474 648 l-7 -11 11 7 c7 4 12 9 12 12 0 8 -9 4 -16 -8z" />
    <path d="M1690 650 l-15 -10 15 -10 15 -10 -15 -10 -15 -10 12 0 c7 0 16 8 21
17 l10 17 17 -17 c23 -24 32 -21 11 2 l-18 20 8 13 c4 7 -3 4 -16 -7 l-23 -20
6 18 c7 20 7 20 -13 7z" />
    <path d="M2494 648 l-7 -11 11 7 c7 4 12 9 12 12 0 8 -9 4 -16 -8z" />
    <path d="M1526 627 c3 -10 9 -15 12 -12 3 3 0 11 -7 18 l-12 12 7 -18z" />
    <path d="M2546 627 c3 -10 9 -15 12 -12 3 3 0 11 -7 18 l-12 12 7 -18z" />
    <path d="M1444 619 c-8 -14 14 -19 25 -6 l11 14 -16 0 c-8 0 -17 -4 -20 -8z" />
    <path d="M1500 621 c0 -6 4 -13 10 -16 l10 -6 -6 15 c-7 18 -14 21 -14 7z" />
    <path d="M2464 619 c-8 -14 14 -19 25 -6 l11 14 -16 0 c-8 0 -17 -4 -20 -8z" />
    <path d="M2516 621 c-3 -5 1 -11 9 -14 l14 -6 -6 15 c-6 16 -10 17 -17 5z" />
    <path d="M756 601 c-3 -5 1 -17 10 -25 21 -21 30 -21 13 1 -8 9 -12 18 -11 20
2 3 1 7 -1 9 -3 3 -8 1 -11 -5z" />
    <path d="M1776 601 c-3 -5 1 -17 10 -25 21 -21 30 -21 13 1 -8 9 -12 18 -11
20 2 3 1 7 -1 9 -3 3 -8 1 -11 -5z" />
    <path d="M3375 589 c-4 -6 -5 -12 -2 -15 2 -3 7 2 10 11 7 17 1 20 -8 4z" />
    <path d="M1394 578 l-7 -11 11 7 c12 7 16 16 8 16 -3 0 -8 -5 -12 -12z" />
    <path d="M2414 578 l-7 -11 11 7 c12 7 16 16 8 16 -3 0 -8 -5 -12 -12z" />
    <path d="M1415 570 l-6 -10 15 0 c9 0 16 5 16 10 0 6 -4 10 -9 10 -6 0 -13 -4
-16 -10z" />
    <path d="M2435 570 l-6 -10 15 0 c9 0 16 5 16 10 0 6 -4 10 -9 10 -6 0 -13 -4
-16 -10z" />
    <path d="M804 558 l-7 -11 11 7 c7 4 12 9 12 12 0 8 -9 4 -16 -8z" />
    <path d="M1824 558 l-7 -11 11 7 c12 7 16 16 8 16 -3 0 -8 -5 -12 -12z" />
    <path d="M755 549 c-4 -6 -5 -12 -2 -15 2 -3 7 2 10 11 7 17 1 20 -8 4z" />
    <path d="M812 545 l-23 -12 15 -6 c9 -4 16 -2 16 4 l0 10 21 -12 21 -11 9 9
10 10 -23 9 -23 10 -23 -11z" />
    <path d="M1375 550 c-3 -5 -1 -10 4 -10 6 0 11 5 11 10 0 6 -2 10 -4 10 -3 0
-8 -4 -11 -10z" />
    <path d="M1775 549 c-4 -6 -5 -12 -2 -15 2 -3 7 2 10 11 7 17 1 20 -8 4z" />
    <path d="M1832 545 l-23 -12 15 -6 c9 -4 16 -2 16 4 l0 10 21 -12 21 -11 9 9
10 10 -23 9 -23 10 -23 -11z" />
    <path d="M2395 550 c-3 -5 -1 -10 4 -10 6 0 11 5 11 10 0 6 -2 10 -4 10 -3 0
-8 -4 -11 -10z" />
    <path d="M1343 535 c0 -8 4 -12 9 -9 5 3 6 10 3 15 -9 13 -12 11 -12 -6z" />
    <path d="M2363 535 c0 -8 4 -12 9 -9 5 3 6 10 3 15 -9 13 -12 11 -12 -6z" />
    <path d="M925 510 c3 -6 1 -10 -6 -10 -7 0 -10 -3 -6 -6 3 -3 13 -2 22 4 l17
9 -16 6 -17 7 6 -10z" />
    <path d="M1945 510 c3 -6 1 -10 -6 -10 -7 0 -10 -3 -6 -6 3 -3 13 -2 22 4 l17
9 -16 6 -17 7 6 -10z" />
    <path d="M3300 500 c-6 -11 -8 -20 -6 -20 3 0 10 9 16 20 6 11 8 20 6 20 -3 0
-10 -9 -16 -20z" />
    <path d="M3369 503 l-14 -18 18 14 c16 13 21 21 13 21 -2 0 -10 -8 -17 -17z" />
    <path d="M3319 489 l-11 -21 11 6 c19 12 12 -13 -9 -31 -11 -10 -20 -24 -20
-32 0 -8 13 3 29 25 17 21 26 40 21 42 -5 2 -6 10 -3 18 8 22 -5 17 -18 -7z" />
    <path d="M1288 493 c7 -3 16 -2 19 1 4 3 -2 6 -13 5 l-19 -1 13 -5z" />
    <path d="M2308 493 c7 -3 16 -2 19 1 4 3 -2 6 -13 5 l-19 -1 13 -5z" />
    <path d="M3215 430 c-3 -5 -1 -10 4 -10 6 0 11 5 11 10 0 6 -2 10 -4 10 -3 0
-8 -4 -11 -10z" />
    <path d="M3250 379 c0 -5 5 -7 10 -4 6 3 10 8 10 11 0 2 -4 4 -10 4 -5 0 -10
-5 -10 -11z" />
    <path d="M3216 352 c-3 -5 1 -9 9 -9 8 0 12 4 9 9 -3 4 -7 8 -9 8 -2 0 -6 -4
-9 -8z" />
    <path d="M3140 259 c-6 -11 -8 -24 -5 -30 4 -5 1 -16 -5 -24 l-12 -15 -25 5
c-14 2 -23 1 -19 -2 13 -14 41 -11 58 4 l18 16 -6 20 -6 20 11 -7 11 -7 -7 18
-7 18 16 -13 16 -13 5 14 5 13 -19 1 -19 2 -10 -20z" />
    <path d="M3050 180 c0 -7 3 -10 7 -7 3 4 3 10 0 14 -4 3 -7 0 -7 -7z" />
    <path d="M3075 152 l5 -14 -14 5 -14 6 5 -20 6 -20 18 17 c23 21 25 41 4 41
l-16 0 6 -15z" />
    <path d="M2976 93 l-7 -18 12 12 c7 7 10 15 7 18 -3 3 -9 -2 -12 -12z" />
    <path d="M3001 91 l-13 -23 11 6 c6 4 11 4 11 -1 0 -13 -14 -30 -30 -35 l-14
-4 11 -7 11 -7 31 32 c31 32 44 61 17 39 l-14 -12 -4 18 -4 18 -13 -24z" />
    <path d="M2108 3 c7 -3 16 -2 19 1 4 3 -2 6 -13 5 l-19 -1 13 -5z" />
  </g>
  <g transform="translate(0.000000,195.000000) scale(0.100000,-0.100000)" fill="#121212" stroke="none">
    <path d="M2583 1943 c4 -3 10 -3 14 0 3 4 0 7 -7 7 -7 0 -10 -3 -7 -7z" />
    <path d="M2683 1943 c26 -2 67 -2 90 0 23 2 2 3 -48 3 -49 0 -68 -1 -42 -3z" />
    <path d="M2843 1943 c9 -2 25 -2 35 0 9 3 1 5 -18 5 -19 0 -27 -2 -17 -5z" />
    <path d="M2928 1943 c7 -3 16 -2 19 1 4 3 -2 6 -13 5 l-19 -1 13 -5z" />
    <path d="M3006 1877 c3 -10 9 -15 12 -12 3 3 0 11 -7 18 l-12 12 7 -18z" />
    <path d="M3040 1831 c0 -5 5 -13 10 -16 6 -3 10 -2 10 4 0 5 -4 13 -10 16 -5
3 -10 2 -10 -4z" />
    <path d="M3086 1777 c3 -10 9 -15 12 -12 3 3 0 11 -7 18 l-12 12 7 -18z" />
    <path d="M3140 1700 c0 -7 3 -10 7 -7 3 4 3 10 0 14 -4 3 -7 0 -7 -7z" />
    <path d="M784 1348 l-7 -11 11 7 c7 4 12 9 12 12 0 8 -9 4 -16 -8z" />
    <path d="M1804 1348 l-7 -11 11 7 c7 4 12 9 12 12 0 8 -9 4 -16 -8z" />
    <path d="M620 1100 c0 -7 3 -10 7 -7 3 4 3 10 0 14 -4 3 -7 0 -7 -7z" />
    <path d="M1630 1100 c0 -7 3 -10 7 -7 3 4 3 10 0 14 -4 3 -7 0 -7 -7z" />
    <path d="M1403 1053 c4 -3 10 -3 14 0 3 4 0 7 -7 7 -7 0 -10 -3 -7 -7z" />
    <path d="M3694 1008 l-7 -11 11 7 c12 7 16 16 8 16 -3 0 -8 -5 -12 -12z" />
    <path d="M2610 960 c0 -7 3 -10 7 -7 3 4 3 10 0 14 -4 3 -7 0 -7 -7z" />
    <path d="M620 770 c0 -7 3 -10 7 -7 3 4 3 10 0 14 -4 3 -7 0 -7 -7z" />
    <path d="M1630 770 c0 -7 3 -10 7 -7 3 4 3 10 0 14 -4 3 -7 0 -7 -7z" />
    <path d="M1504 688 l-7 -11 11 7 c12 7 16 16 8 16 -3 0 -8 -5 -12 -12z" />
    <path d="M2519 683 l-14 -18 18 14 c16 13 21 21 13 21 -2 0 -10 -8 -17 -17z" />
    <path d="M2505 650 c3 -5 8 -10 11 -10 3 0 2 5 -1 10 -3 6 -8 10 -11 10 -3 0
-2 -4 1 -10z" />
    <path d="M685 610 c3 -5 8 -10 11 -10 3 0 2 5 -1 10 -3 6 -8 10 -11 10 -3 0
-2 -4 1 -10z" />
    <path d="M1705 610 c3 -5 8 -10 11 -10 3 0 2 5 -1 10 -3 6 -8 10 -11 10 -3 0
-2 -4 1 -10z" />
    <path d="M767 599 c7 -7 15 -10 18 -7 3 3 -2 9 -12 12 l-18 7 12 -12z" />
    <path d="M1787 599 c7 -7 15 -10 18 -7 3 3 -2 9 -12 12 l-18 7 12 -12z" />
    <path d="M800 576 c0 -3 9 -10 20 -16 11 -6 20 -8 20 -6 0 3 -9 10 -20 16 -11
6 -20 8 -20 6z" />
    <path d="M1820 576 c0 -3 9 -10 20 -16 11 -6 20 -8 20 -6 0 3 -9 10 -20 16
-11 6 -20 8 -20 6z" />
    <path d="M3380 540 c0 -7 3 -10 7 -7 3 4 3 10 0 14 -4 3 -7 0 -7 -7z" />
    <path d="M957 499 c7 -7 15 -10 18 -7 3 3 -2 9 -12 12 l-18 7 12 -12z" />
    <path d="M1234 498 l-7 -11 11 7 c7 4 12 9 12 12 0 8 -9 4 -16 -8z" />
    <path d="M1977 499 c7 -7 15 -10 18 -7 3 3 -2 9 -12 12 l-18 7 12 -12z" />
    <path d="M2254 498 l-7 -11 11 7 c12 7 16 16 8 16 -3 0 -8 -5 -12 -12z" />
    <path d="M1203 493 c4 -3 10 -3 14 0 3 4 0 7 -7 7 -7 0 -10 -3 -7 -7z" />
    <path d="M2223 493 c4 -3 10 -3 14 0 3 4 0 7 -7 7 -7 0 -10 -3 -7 -7z" />
    <path d="M3135 270 c3 -5 8 -10 11 -10 3 0 2 5 -1 10 -3 6 -8 10 -11 10 -3 0
-2 -4 1 -10z" />
    <path d="M3067 125 c-15 -19 -24 -35 -19 -35 10 0 56 60 50 65 -2 2 -16 -11
-31 -30z" />
    <path d="M3016 71 c-4 -7 -5 -15 -2 -18 9 -9 19 4 14 18 l-4 13 -8 -13z" />
    <path d="M2168 3 c29 -2 74 -2 100 0 26 2 2 3 -53 3 -55 0 -76 -1 -47 -3z" />
    <path d="M2328 3 c7 -3 16 -2 19 1 4 3 -2 6 -13 5 l-19 -1 13 -5z" />
  </g>
  <g transform="translate(0.000000,195.000000) scale(0.100000,-0.100000)" fill="#3a3a3a" stroke="none">
    <path d="M680 696 c0 -2 8 -10 18 -17 l17 -14 -14 18 c-13 16 -21 21 -21 13z" />
    <path d="M1700 696 c0 -2 8 -10 18 -17 l17 -14 -14 18 c-13 16 -21 21 -21 13z" />
    <path d="M735 630 c10 -11 20 -20 23 -20 3 0 -3 9 -13 20 -10 11 -20 20 -23
20 -3 0 3 -9 13 -20z" />
    <path d="M1755 630 c10 -11 20 -20 23 -20 3 0 -3 9 -13 20 -10 11 -20 20 -23
20 -3 0 3 -9 13 -20z" />
    <path d="M943 503 c4 -3 10 -3 14 0 3 4 0 7 -7 7 -7 0 -10 -3 -7 -7z" />
    <path d="M1963 503 c4 -3 10 -3 14 0 3 4 0 7 -7 7 -7 0 -10 -3 -7 -7z" />
    <path d="M978 493 c7 -3 16 -2 19 1 4 3 -2 6 -13 5 l-19 -1 13 -5z" />
    <path d="M1998 493 c7 -3 16 -2 19 1 4 3 -2 6 -13 5 l-19 -1 13 -5z" />
    <path d="M3036 84 l-6 -17 15 13 c17 14 19 20 6 20 -5 0 -12 -7 -15 -16z" />
    <path d="M2388 3 c6 -2 18 -2 25 0 6 3 1 5 -13 5 -14 0 -19 -2 -12 -5z" />
    <path d="M2668 3 c39 -2 105 -2 145 0 39 1 7 3 -73 3 -80 0 -112 -2 -72 -3z" />
    <path d="M2918 3 c6 -2 18 -2 25 0 6 3 1 5 -13 5 -14 0 -19 -2 -12 -5z" />
    <path d="M2968 3 c7 -3 16 -2 19 1 4 3 -2 6 -13 5 l-19 -1 13 -5z" />
  </g>
  <g transform="translate(0.000000,195.000000) scale(0.100000,-0.100000)" fill="#1c1c1c" stroke="none">
    <path d="M2603 1943 c9 -2 25 -2 35 0 9 3 1 5 -18 5 -19 0 -27 -2 -17 -5z" />
    <path d="M3050 1821 c0 -6 4 -13 10 -16 l10 -6 -6 15 c-7 18 -14 21 -14 7z" />
    <path d="M1393 1053 c4 -3 10 -3 14 0 3 4 0 7 -7 7 -7 0 -10 -3 -7 -7z" />
    <path d="M700 673 c0 -6 8 -17 18 -24 l17 -14 -15 20 c-8 11 -16 22 -17 24 -2
2 -3 0 -3 -6z" />
    <path d="M1720 673 c0 -6 8 -17 18 -24 l17 -14 -15 20 c-8 11 -16 22 -17 24
-2 2 -3 0 -3 -6z" />
    <path d="M755 610 c3 -5 8 -10 11 -10 3 0 2 5 -1 10 -3 6 -8 10 -11 10 -3 0
-2 -4 1 -10z" />
    <path d="M1775 610 c3 -5 8 -10 11 -10 3 0 2 5 -1 10 -3 6 -8 10 -11 10 -3 0
-2 -4 1 -10z" />
    <path d="M1243 503 c4 -3 10 -3 14 0 3 4 0 7 -7 7 -7 0 -10 -3 -7 -7z" />
    <path d="M2263 503 c4 -3 10 -3 14 0 3 4 0 7 -7 7 -7 0 -10 -3 -7 -7z" />
    <path d="M3090 150 c0 -7 3 -10 7 -7 3 4 3 10 0 14 -4 3 -7 0 -7 -7z" />
    <path d="M3060 110 c0 -7 3 -10 7 -7 3 4 3 10 0 14 -4 3 -7 0 -7 -7z" />
    <path d="M3020 69 c0 -5 5 -7 10 -4 6 3 10 8 10 11 0 2 -4 4 -10 4 -5 0 -10
-5 -10 -11z" />
    <path d="M2308 3 c7 -3 16 -2 19 1 4 3 -2 6 -13 5 l-19 -1 13 -5z" />
    <path d="M2348 3 c7 -3 16 -2 19 1 4 3 -2 6 -13 5 l-19 -1 13 -5z" />
  </g>
  <g transform="translate(0.000000,195.000000) scale(0.100000,-0.100000)" fill="#303030" stroke="none">
    <path d="M2943 1943 c4 -3 10 -3 14 0 3 4 0 7 -7 7 -7 0 -10 -3 -7 -7z" />
    <path d="M1373 1053 c4 -3 10 -3 14 0 3 4 0 7 -7 7 -7 0 -10 -3 -7 -7z" />
    <path d="M795 580 c3 -5 8 -10 11 -10 3 0 2 5 -1 10 -3 6 -8 10 -11 10 -3 0
-2 -4 1 -10z" />
    <path d="M1815 580 c3 -5 8 -10 11 -10 3 0 2 5 -1 10 -3 6 -8 10 -11 10 -3 0
-2 -4 1 -10z" />
    <path d="M3024 68 l-7 -11 11 7 c7 4 12 9 12 12 0 8 -9 4 -16 -8z" />
    <path d="M2373 3 c4 -3 10 -3 14 0 3 4 0 7 -7 7 -7 0 -10 -3 -7 -7z" />
    <path d="M2468 3 c29 -2 74 -2 100 0 26 2 2 3 -53 3 -55 0 -76 -1 -47 -3z" />
    <path d="M2948 3 c7 -3 16 -2 19 1 4 3 -2 6 -13 5 l-19 -1 13 -5z" />
  </g>
  <g transform="translate(0.000000,195.000000) scale(0.100000,-0.100000)" fill="#2a2a2a" stroke="none">
    <path d="M1383 1053 c4 -3 10 -3 14 0 3 4 0 7 -7 7 -7 0 -10 -3 -7 -7z" />
    <path d="M1683 713 c4 -3 10 -3 14 0 3 4 0 7 -7 7 -7 0 -10 -3 -7 -7z" />
    <path d="M1404 588 l-7 -11 11 7 c12 7 16 16 8 16 -3 0 -8 -5 -12 -12z" />
    <path d="M2424 588 l-7 -11 11 7 c12 7 16 16 8 16 -3 0 -8 -5 -12 -12z" />
    <path d="M2363 3 c4 -3 10 -3 14 0 3 4 0 7 -7 7 -7 0 -10 -3 -7 -7z" />
    <path d="M2413 3 c4 -3 10 -3 14 0 3 4 0 7 -7 7 -7 0 -10 -3 -7 -7z" />
  </g>
  <g transform="translate(0.000000,195.000000) scale(0.100000,-0.100000)" fill="#454545" stroke="none">
    <path d="M785 590 c3 -5 8 -10 11 -10 3 0 2 5 -1 10 -3 6 -8 10 -11 10 -3 0
-2 -4 1 -10z" />
    <path d="M1805 590 c3 -5 8 -10 11 -10 3 0 2 5 -1 10 -3 6 -8 10 -11 10 -3 0
-2 -4 1 -10z" />
    <path d="M3050 100 l-15 -10 12 0 c6 0 15 5 18 10 8 12 4 12 -15 0z" />
    <path d="M2883 3 c9 -2 23 -2 30 0 6 3 -1 5 -18 5 l-30 0 18 -5z" />
  </g>
  <g transform="translate(0.000000,195.000000) scale(0.100000,-0.100000)" fill="#222222" stroke="none">
    <path d="M2613 1943 c4 -3 10 -3 14 0 3 4 0 7 -7 7 -7 0 -10 -3 -7 -7z" />
    <path d="M3010 55 l-12 -15 10 0 c12 0 26 19 19 26 -2 2 -10 -2 -17 -11z" />
  </g>
  <g transform="translate(0.000000,195.000000) scale(0.100000,-0.100000)" fill="#737474" stroke="none">
    <path d="M3014 48 l-7 -11 11 7 c12 7 16 16 8 16 -3 0 -8 -5 -12 -12z" />
  </g>
  <g transform="translate(0.000000,195.000000) scale(0.100000,-0.100000)" fill="#150300" stroke="none">
    <path d="M3720 965 l0 -26 10 6 c6 3 10 12 10 20 0 8 -4 17 -10 20 l-10 6 0
-26z" />
  </g>
  <g transform="translate(0.000000,195.000000) scale(0.100000,-0.100000)" fill="#392921" stroke="none">
    <path d="M3726 977 c3 -10 9 -15 12 -12 3 3 0 11 -7 18 l-12 12 7 -18z" />
  </g>
  <g transform="translate(0.000000,195.000000) scale(0.100000,-0.100000)" fill="#2e0000" stroke="none">
    <path d="M3730 960 c0 -7 3 -10 7 -7 3 4 3 10 0 14 -4 3 -7 0 -7 -7z" />
  </g>
  <g transform="translate(0.000000,195.000000) scale(0.100000,-0.100000)" fill="#ffffff" stroke="none" />
  <g transform="translate(0.000000,195.000000) scale(0.100000,-0.100000)" fill="#000000" stroke="none" />
  <g transform="translate(0.000000,195.000000) scale(0.100000,-0.100000)" fill="#000000" stroke="none" />
  <g transform="translate(0.000000,195.000000) scale(0.100000,-0.100000)" fill="#000000" stroke="none" />
  <g transform="translate(0.000000,195.000000) scale(0.100000,-0.100000)" fill="#000000" stroke="none" />
  <g transform="translate(0.000000,195.000000) scale(0.100000,-0.100000)" fill="#000000" stroke="none" />
  <g transform="translate(0.000000,195.000000) scale(0.100000,-0.100000)" fill="#000000" stroke="none" />
  <g transform="translate(0.000000,195.000000) scale(0.100000,-0.100000)" fill="#000000" stroke="none" />
  <g transform="translate(0.000000,195.000000) scale(0.100000,-0.100000)" fill="#000000" stroke="none" />
  <g transform="translate(0.000000,195.000000) scale(0.100000,-0.100000)" fill="#000000" stroke="none" />
</svg>