<svg aria-hidden="true" style="position: absolute; width: 0; height: 0; overflow: hidden;" version="1.1" xmlns="http://www.w3.org/2000/svg" xmlns:xlink="http://www.w3.org/1999/xlink">
<defs>
<symbol id="icon-circle-x-re" viewBox="0 0 32 32">
<path d="M11.746 0.82c-2.654 0.82-5.932 3.161-7.844 5.62-6.166 8-3.356 19.473 5.854 23.883 1.717 0.82 2.888 1.093 5.698 1.21 3.707 0.156 5.307-0.117 8.234-1.561 2.341-1.132 5.424-4.332 6.868-7.102 1.171-2.263 1.249-2.615 1.249-6.673s-0.078-4.449-1.249-6.829c-1.561-3.161-4.098-5.737-7.259-7.454-2.224-1.21-2.732-1.327-6.322-1.405-2.146-0.039-4.488 0.078-5.229 0.312zM22.244 3.59c2.654 1.21 5.112 3.551 6.517 6.244 0.976 1.873 1.093 2.419 1.093 6.166s-0.117 4.293-1.093 6.166c-5.62 10.693-21.034 9.873-25.249-1.366-1.171-3.044-0.976-8.039 0.39-10.654 1.795-3.473 3.863-5.424 7.376-6.907 3.005-1.288 7.805-1.132 10.966 0.351z"></path>
<path d="M10.263 10.38c-0.156 0.429 0.585 1.405 2.263 3.122l2.459 2.498-2.459 2.498c-1.678 1.717-2.419 2.693-2.263 3.122 0.429 1.054 1.132 0.702 3.668-1.795l2.459-2.419 2.498 2.459c1.717 1.678 2.693 2.419 3.122 2.263 1.054-0.429 0.702-1.132-1.795-3.668l-2.419-2.459 2.419-2.459c2.498-2.537 2.849-3.239 1.795-3.668-0.429-0.156-1.405 0.585-3.122 2.263l-2.498 2.459-2.459-2.419c-2.537-2.498-3.239-2.849-3.668-1.795z"></path>
</symbol>
</defs>
</svg>
